<svg width="385" height="643" viewBox="0 0 385 643" fill="none" xmlns="http://www.w3.org/2000/svg">
<path d="M476.185 462.146C461.505 444.686 437.405 429.956 443.405 407.956C448.305 389.956 467.045 380.266 481.475 368.446C507.275 347.326 522.225 313.606 520.565 280.306C519.725 263.306 514.345 245.896 502.165 234.046C489.985 222.196 470.075 217.496 455.375 226.046C454.375 205.726 465.935 187.256 474.765 168.926C483.595 150.596 489.765 127.926 478.915 110.686C470.705 97.6857 454.815 91.5857 439.585 89.3057C393.985 82.4857 351.015 108.876 320.435 143.386C256.125 215.956 277.905 144.076 208.835 88.1657C139.765 32.2557 200.835 240.026 200.835 240.026C171.245 189.226 140.595 137.156 94.3451 100.856C85.1951 93.6557 75.0251 86.9657 63.4851 85.4357C51.9451 83.9057 38.8451 88.9557 34.3451 99.6657C29.0351 112.226 36.9651 126.266 45.4551 136.936C53.9451 147.606 63.9151 159.136 63.0651 172.746C62.0651 189.646 43.6851 201.136 26.7451 201.076C9.80507 201.016 -5.87493 192.716 -20.9549 184.956C-36.0349 177.196 -52.3049 169.706 -69.1549 171.376C-95.4849 173.996 -115.505 200.516 -115.555 226.976C-115.605 253.436 -98.8749 277.976 -76.7349 292.486C-67.1149 298.786 -56.4249 303.546 -47.7349 311.056C-39.0449 318.566 -32.3649 329.956 -34.5549 341.256C-37.6449 357.156 -55.2949 364.676 -69.4649 372.536C-95.2169 386.915 -115.24 409.713 -126.175 437.106C-128.375 442.656 -130.175 448.776 -128.585 454.526C-125.475 465.646 -111.925 469.526 -100.485 471.036C-73.1449 474.576 -44.9749 474.956 -19.1049 484.486C-8.82492 488.276 1.79508 494.416 5.34508 504.786C5.34508 504.786 -74.0849 561.896 -39.8949 587.316C-5.70493 612.736 211.795 577.926 267.885 587.316C323.975 596.706 432.455 587.316 432.455 587.316C432.455 587.316 546.055 545.196 476.185 462.146Z" fill="#FF6A00"/>
<path d="M9.34485 110.366C6.88485 82.0357 -29.0052 56.7257 -55.6552 73.2657C-59.0752 75.3857 -101.395 103.206 -47.0752 152.876C-23.6552 174.306 11.8648 139.826 9.34485 110.366Z" fill="#FF6A00"/>
<path d="M362.505 14.1157C343.805 -4.15428 290.565 29.8957 280.695 53.2157C276.345 63.5057 271.345 75.9557 274.605 87.2957C278.835 101.906 294.165 105.726 307.355 101.716C332.505 94.0757 361.815 74.0157 369.355 47.7157C372.515 36.4157 371.425 22.8257 362.505 14.1157Z" fill="#FF6A00"/>
<path d="M132.225 30.6457C124.955 23.1757 113.285 19.0457 104.035 25.4557C95.0349 31.6757 95.2249 44.9557 97.9449 54.3957C99.3209 59.1436 101.929 63.4426 105.505 66.8557C110.065 75.1757 118.145 82.5657 127.995 80.3757C150.515 75.3457 143.905 42.6457 132.225 30.6457Z" fill="#FF6A00"/>
<g opacity="0.7">
<path d="M476.185 462.146C461.505 444.686 437.405 429.956 443.405 407.956C448.305 389.956 467.045 380.266 481.475 368.446C507.275 347.326 522.225 313.606 520.565 280.306C519.725 263.306 514.345 245.896 502.165 234.046C489.985 222.196 470.075 217.496 455.375 226.046C454.375 205.726 465.935 187.256 474.765 168.926C483.595 150.596 489.765 127.926 478.915 110.686C470.705 97.6856 454.815 91.5856 439.585 89.3056C393.985 82.4856 351.015 108.876 320.435 143.386C256.125 215.956 277.905 144.076 208.835 88.1656C139.765 32.2556 200.835 240.026 200.835 240.026C171.245 189.226 140.595 137.156 94.3451 100.856C85.1951 93.6556 75.0251 86.9656 63.4851 85.4356C51.9451 83.9056 38.8451 88.9556 34.3451 99.6656C29.0351 112.226 36.9651 126.266 45.4551 136.936C53.9451 147.606 63.9151 159.136 63.0651 172.746C62.0651 189.646 43.6851 201.136 26.7451 201.076C9.80507 201.016 -5.87493 192.716 -20.9549 184.956C-36.0349 177.196 -52.3049 169.706 -69.1549 171.376C-95.4849 173.996 -115.505 200.516 -115.555 226.976C-115.605 253.436 -98.8749 277.976 -76.7349 292.486C-67.1149 298.786 -56.4249 303.546 -47.7349 311.056C-39.0449 318.566 -32.3649 329.956 -34.5549 341.256C-37.6449 357.156 -55.2949 364.676 -69.4649 372.536C-95.2169 386.915 -115.24 409.713 -126.175 437.106C-128.375 442.656 -130.175 448.776 -128.585 454.526C-125.475 465.646 -111.925 469.526 -100.485 471.036C-73.1449 474.576 -44.9749 474.956 -19.1049 484.486C-8.82492 488.276 1.79508 494.416 5.34508 504.786C5.34508 504.786 -74.0849 561.896 -39.8949 587.316C-5.70493 612.736 211.795 577.926 267.885 587.316C323.975 596.706 432.455 587.316 432.455 587.316C432.455 587.316 546.055 545.196 476.185 462.146Z" fill="white"/>
<path d="M9.34509 110.366C6.88509 82.0356 -29.0049 56.7256 -55.6549 73.2656C-59.0749 75.3856 -101.395 103.206 -47.0749 152.876C-23.6549 174.306 11.8651 139.826 9.34509 110.366Z" fill="white"/>
<path d="M362.505 14.1156C343.805 -4.15436 290.565 29.8956 280.695 53.2156C276.345 63.5056 271.345 75.9556 274.605 87.2956C278.835 101.906 294.165 105.726 307.355 101.716C332.505 94.0756 361.815 74.0156 369.355 47.7156C372.515 36.4156 371.425 22.8256 362.505 14.1156Z" fill="white"/>
<path d="M132.225 30.6456C124.955 23.1756 113.285 19.0456 104.035 25.4556C95.0352 31.6756 95.2252 44.9556 97.9452 54.3956C99.3211 59.1435 101.929 63.4425 105.505 66.8556C110.065 75.1756 118.145 82.5656 127.995 80.3756C150.515 75.3456 143.905 42.6456 132.225 30.6456Z" fill="white"/>
</g>
<path d="M307.465 193.236C308.335 192.496 308.865 191.696 308.645 191.446L233.985 104.726C233.775 104.476 232.905 104.876 232.045 105.626C231.185 106.376 230.655 107.166 230.865 107.416L305.525 194.136C305.735 194.386 306.605 193.956 307.465 193.236Z" fill="#29283E"/>
<path d="M307.455 190.126L307.965 190.666C306.974 191.6 306.14 192.687 305.495 193.886L304.815 193.596C305.495 192.3 306.387 191.127 307.455 190.126Z" fill="#FF6A00"/>
<path d="M304.015 186.126L304.525 186.666C303.537 187.602 302.703 188.689 302.055 189.886L301.375 189.606C302.056 188.307 302.948 187.131 304.015 186.126Z" fill="#FF6A00"/>
<path d="M300.585 182.136L301.095 182.676C300.097 183.606 299.259 184.693 298.615 185.896L297.935 185.606C298.614 184.306 299.51 183.133 300.585 182.136Z" fill="#FF6A00"/>
<path d="M297.145 178.136L297.655 178.676C296.66 179.608 295.822 180.695 295.175 181.896L294.495 181.616C295.176 180.314 296.072 179.138 297.145 178.136Z" fill="#FF6A00"/>
<path d="M293.705 174.146L294.215 174.686C293.217 175.615 292.379 176.703 291.735 177.906L291.055 177.616C291.737 176.318 292.633 175.145 293.705 174.146Z" fill="#FF6A00"/>
<path d="M290.265 170.146L290.775 170.686C289.793 171.637 288.972 172.741 288.345 173.956L287.665 173.676C288.328 172.362 289.207 171.169 290.265 170.146Z" fill="#FF6A00"/>
<path d="M286.825 166.156L287.335 166.686C286.344 167.625 285.507 168.715 284.855 169.916L284.175 169.626C284.854 168.327 285.751 167.153 286.825 166.156Z" fill="#FF6A00"/>
<path d="M283.345 162.156L283.855 162.696C282.863 163.631 282.025 164.718 281.375 165.916L280.695 165.626C281.38 164.33 282.276 163.158 283.345 162.156Z" fill="#FF6A00"/>
<path d="M279.945 158.166L280.455 158.696C279.464 159.635 278.627 160.725 277.975 161.926L277.295 161.636C277.974 160.337 278.871 159.163 279.945 158.166Z" fill="#FF6A00"/>
<path d="M276.505 154.166L277.015 154.706C276.023 155.641 275.186 156.728 274.535 157.926L273.855 157.636C274.54 156.34 275.436 155.168 276.505 154.166Z" fill="#FF6A00"/>
<path d="M273.065 150.166L273.575 150.706C272.584 151.645 271.747 152.735 271.095 153.936L270.415 153.646C271.098 152.346 271.994 151.17 273.065 150.166Z" fill="#FF6A00"/>
<path d="M269.625 146.176L270.135 146.716C269.143 147.651 268.306 148.738 267.655 149.936L266.975 149.646C267.66 148.35 268.556 147.178 269.625 146.176Z" fill="#FF6A00"/>
<path d="M266.185 142.176L266.695 142.716C265.706 143.651 264.873 144.738 264.225 145.936L263.535 145.656C264.218 144.356 265.114 143.18 266.185 142.176Z" fill="#FF6A00"/>
<path d="M262.745 138.186L263.255 138.726C262.264 139.659 261.43 140.747 260.785 141.946L260.095 141.656C260.78 140.36 261.676 139.188 262.745 138.186Z" fill="#FF6A00"/>
<path d="M259.345 134.186L259.855 134.726C258.849 135.659 258.001 136.75 257.345 137.956L256.655 137.676C257.353 136.372 258.262 135.192 259.345 134.186Z" fill="#FF6A00"/>
<path d="M255.865 130.196L256.375 130.736C255.384 131.669 254.55 132.757 253.905 133.956L253.215 133.666C253.904 132.373 254.799 131.201 255.865 130.196Z" fill="#FF6A00"/>
<path d="M252.425 126.196L252.935 126.736C251.944 127.669 251.11 128.757 250.465 129.956L249.775 129.676C250.462 128.378 251.357 127.203 252.425 126.196Z" fill="#FF6A00"/>
<path d="M248.985 122.206L249.495 122.746C248.501 123.677 247.667 124.765 247.025 125.966L246.335 125.676C247.021 124.381 247.916 123.208 248.985 122.206Z" fill="#FF6A00"/>
<path d="M245.545 118.206L246.055 118.746C245.064 119.679 244.23 120.767 243.585 121.966L242.895 121.686C243.582 120.388 244.477 119.213 245.545 118.206Z" fill="#FF6A00"/>
<path d="M242.105 114.216L242.615 114.756C241.623 115.681 240.789 116.762 240.145 117.956L239.455 117.666C240.143 116.378 241.038 115.212 242.105 114.216Z" fill="#FF6A00"/>
<path d="M238.665 110.216L239.175 110.756C238.184 111.689 237.35 112.777 236.705 113.976L236.015 113.696C236.702 112.398 237.597 111.223 238.665 110.216Z" fill="#FF6A00"/>
<path d="M235.225 106.226L235.735 106.766C234.744 107.7 233.91 108.787 233.265 109.986L232.575 109.696C233.261 108.401 234.156 107.228 235.225 106.226Z" fill="#FF6A00"/>
<path d="M185.125 186.956C185.685 187.956 186.365 188.626 186.645 188.466L286.345 132.296C286.625 132.136 286.405 131.206 285.845 130.216C285.285 129.226 284.605 128.546 284.325 128.706L184.625 184.856C184.345 185.016 184.565 185.956 185.125 186.956Z" fill="#29283E"/>
<path d="M188.175 187.546L187.545 187.946C186.832 186.784 185.93 185.75 184.875 184.886L185.295 184.266C186.429 185.193 187.403 186.301 188.175 187.546Z" fill="#FF6A00"/>
<path d="M192.775 184.956L192.145 185.356C191.423 184.201 190.521 183.168 189.475 182.296L189.885 181.676C191.019 182.606 191.995 183.713 192.775 184.956Z" fill="#FF6A00"/>
<path d="M197.345 182.376L196.715 182.766C195.993 181.61 195.092 180.577 194.045 179.706L194.455 179.096C195.596 180.018 196.574 181.127 197.345 182.376Z" fill="#FF6A00"/>
<path d="M201.955 179.786L201.325 180.176C200.608 179.02 199.706 177.989 198.655 177.126L199.075 176.506C200.21 177.433 201.183 178.541 201.955 179.786Z" fill="#FF6A00"/>
<path d="M206.555 177.196L205.925 177.596C205.202 176.441 204.301 175.408 203.255 174.536L203.665 173.916C204.802 174.843 205.778 175.951 206.555 177.196Z" fill="#FF6A00"/>
<path d="M211.145 174.616L210.515 175.006C209.795 173.852 208.893 172.822 207.845 171.956L208.255 171.346C209.396 172.265 210.373 173.371 211.145 174.616Z" fill="#FF6A00"/>
<path d="M215.735 172.026L215.115 172.416C214.388 171.261 213.483 170.229 212.435 169.356L212.855 168.746C213.992 169.67 214.965 170.779 215.735 172.026Z" fill="#FF6A00"/>
<path d="M220.345 169.436L219.715 169.836C218.995 168.679 218.094 167.645 217.045 166.776L217.455 166.156C218.594 167.08 219.571 168.189 220.345 169.436Z" fill="#FF6A00"/>
<path d="M224.925 166.846L224.295 167.246C223.576 166.088 222.674 165.055 221.625 164.186L222.035 163.566C223.172 164.493 224.149 165.601 224.925 166.846Z" fill="#FF6A00"/>
<path d="M229.515 164.266L228.895 164.656C228.168 163.501 227.263 162.469 226.215 161.596L226.635 160.986C227.772 161.91 228.745 163.019 229.515 164.266Z" fill="#FF6A00"/>
<path d="M234.115 161.676L233.485 162.066C232.765 160.912 231.863 159.882 230.815 159.016L231.225 158.396C232.364 159.32 233.341 160.429 234.115 161.676Z" fill="#FF6A00"/>
<path d="M238.705 159.086L238.075 159.486C237.356 158.328 236.454 157.295 235.405 156.426L235.825 155.806C236.957 156.735 237.93 157.843 238.705 159.086Z" fill="#FF6A00"/>
<path d="M243.345 156.506L242.725 156.896C241.998 155.741 241.093 154.709 240.045 153.836L240.465 153.226C241.605 154.147 242.579 155.256 243.345 156.506Z" fill="#FF6A00"/>
<path d="M247.895 153.956L247.265 154.346C246.543 153.19 245.642 152.157 244.595 151.286L245.005 150.676C246.144 151.6 247.121 152.709 247.895 153.956Z" fill="#FF6A00"/>
<path d="M252.485 151.326L251.855 151.726C251.139 150.566 250.237 149.533 249.185 148.666L249.605 148.046C250.74 148.973 251.713 150.081 252.485 151.326Z" fill="#FF6A00"/>
<path d="M257.075 148.746L256.455 149.136C255.731 147.979 254.826 146.946 253.775 146.076L254.195 145.466C255.335 146.387 256.309 147.496 257.075 148.746Z" fill="#FF6A00"/>
<path d="M261.675 146.156L261.045 146.546C260.323 145.39 259.422 144.357 258.375 143.486L258.785 142.876C259.927 143.798 260.904 144.907 261.675 146.156Z" fill="#FF6A00"/>
<path d="M266.265 143.566L265.635 143.966C264.918 142.806 264.016 141.773 262.965 140.906L263.385 140.286C264.519 141.213 265.492 142.321 266.265 143.566Z" fill="#FF6A00"/>
<path d="M270.855 140.956L270.235 141.356C269.511 140.199 268.606 139.166 267.555 138.296L267.975 137.676C269.11 138.602 270.083 139.71 270.855 140.956Z" fill="#FF6A00"/>
<path d="M275.455 138.396L274.825 138.786C274.103 137.63 273.202 136.597 272.155 135.726L272.565 135.116C273.707 136.038 274.684 137.147 275.455 138.396Z" fill="#FF6A00"/>
<path d="M280.045 135.806L279.415 136.196C278.695 135.042 277.793 134.012 276.745 133.146L277.165 132.526C278.3 133.453 279.273 134.561 280.045 135.806Z" fill="#FF6A00"/>
<path d="M284.635 133.216L284.015 133.616C283.294 132.46 282.393 131.426 281.345 130.556L281.765 129.936C282.899 130.86 283.87 131.969 284.635 133.216Z" fill="#FF6A00"/>
<path d="M324.445 584.496L327.275 618.596C327.275 618.596 329.935 634.896 317.465 637.596C317.465 637.596 311.975 638.086 312.465 641.246C312.465 641.246 328.595 646.736 336.465 637.246C338.261 633.739 340.355 630.393 342.725 627.246C344.979 624.328 347.748 621.847 350.895 619.926C352.466 619.017 353.632 617.544 354.155 615.806C354.383 614.871 354.373 613.894 354.125 612.964C353.876 612.035 353.399 611.182 352.735 610.486C350.903 608.387 348.375 607.02 345.615 606.636C345.615 606.636 341.955 601.476 344.115 591.166L324.445 584.496Z" fill="#F9B499"/>
<path d="M337.755 588.956C337.755 588.956 337.085 603.266 345.575 606.596C345.575 606.596 341.745 600.596 344.075 591.126L337.755 588.956Z" fill="#F7A48B"/>
<path d="M329.115 606.866C327.105 606.986 325.096 606.612 323.265 605.776C322.945 605.603 322.665 605.366 322.44 605.081C322.215 604.795 322.051 604.467 321.957 604.116C321.864 603.765 321.842 603.399 321.895 603.039C321.948 602.68 322.074 602.335 322.265 602.026C323.073 600.929 324.224 600.134 325.535 599.766L326.085 601.686C325.249 601.918 324.507 602.408 323.965 603.086C323.915 603.161 323.882 603.247 323.868 603.337C323.854 603.427 323.86 603.518 323.885 603.606C323.937 603.785 324.055 603.939 324.215 604.036C325.325 604.646 328.405 605.476 336.575 604.136C339.705 603.826 345.075 602.866 346.425 601.566C346.451 601.544 346.47 601.516 346.481 601.484C346.491 601.452 346.493 601.418 346.485 601.386C346.484 601.349 346.472 601.313 346.45 601.283C346.429 601.253 346.399 601.229 346.365 601.216C345.499 600.896 344.565 600.809 343.655 600.966L343.465 598.966C344.738 598.762 346.043 598.915 347.235 599.406C347.561 599.56 347.843 599.792 348.058 600.082C348.273 600.371 348.412 600.709 348.465 601.066C348.519 601.417 348.489 601.777 348.376 602.115C348.263 602.452 348.07 602.758 347.815 603.006C345.515 605.196 337.715 606.006 336.815 606.106C334.273 606.565 331.698 606.819 329.115 606.866Z" fill="#FF6A00"/>
<path d="M230.465 621.096C232.315 628.736 226.305 629.716 223.065 629.706C222.423 629.703 221.782 629.66 221.145 629.576C210.005 630.076 203.015 633.906 203.015 633.906C195.027 636.062 186.633 636.231 178.565 634.396C172.245 631.906 188.875 628.076 188.875 628.076C201.185 622.076 213.165 591.816 213.165 591.816L228.235 592.676L236.455 593.146C236.455 593.146 222.145 611.776 225.805 614.436C225.919 614.517 226.029 614.604 226.135 614.696C230.465 618.766 230.465 621.096 230.465 621.096Z" fill="#F9B499"/>
<path d="M230.465 621.096C232.315 628.736 226.305 629.716 223.065 629.706C226.065 625.816 225.395 621.276 224.505 618.546C224.114 617.389 223.566 616.292 222.875 615.286C221.81 613.696 221.208 611.84 221.137 609.927C221.067 608.015 221.53 606.12 222.475 604.456L228.235 592.676L236.455 593.146C236.455 593.146 222.145 611.776 225.805 614.436C225.919 614.517 226.029 614.604 226.135 614.696C230.465 618.766 230.465 621.096 230.465 621.096Z" fill="#F7A48B"/>
<path d="M216.845 614.486C204.715 614.486 202.385 611.026 202.145 610.606C201.485 609.226 201.475 608.176 202.095 607.406C203.155 606.086 205.505 606.546 205.965 606.646L205.515 608.596C204.905 608.411 204.251 608.432 203.655 608.656C203.655 608.656 203.605 608.986 203.885 609.656C204.135 609.966 206.885 612.906 219.285 612.486C219.385 612.486 225.925 612.486 228.945 611.706C229.036 611.682 229.119 611.63 229.18 611.559C229.242 611.487 229.281 611.399 229.292 611.305C229.303 611.211 229.285 611.116 229.241 611.032C229.197 610.948 229.129 610.88 229.045 610.836C228.166 610.439 227.209 610.244 226.245 610.266L226.295 608.266C227.575 608.244 228.842 608.521 229.995 609.076C230.43 609.312 230.784 609.673 231.012 610.113C231.239 610.553 231.329 611.051 231.269 611.543C231.21 612.034 231.004 612.496 230.679 612.87C230.354 613.243 229.924 613.51 229.445 613.636C226.185 614.476 219.595 614.486 219.315 614.486C218.455 614.476 217.625 614.486 216.845 614.486Z" fill="#FF6A00"/>
<path d="M347.065 306.206C342.195 314.016 338.705 312.436 336.545 309.456C335.372 307.694 334.487 305.756 333.925 303.716L329.925 293.396C327.925 287.746 319.445 287.396 319.445 287.396L310.795 281.246L314.735 275.036L346.545 267.466L345.725 277.466L348.725 281.296C350.345 283.627 351.346 286.332 351.635 289.156C352.585 297.956 347.065 306.206 347.065 306.206Z" fill="#F9B499"/>
<path d="M314.745 275.046C314.745 275.046 314.965 281.046 330.935 280.586C334.264 280.742 337.582 280.105 340.615 278.726C341.412 278.357 342.305 278.252 343.165 278.426C343.643 278.495 344.131 278.439 344.582 278.264C345.032 278.089 345.429 277.8 345.735 277.426L346.555 267.426L314.745 275.046Z" fill="#F7A48B"/>
<path d="M365.285 259.046C365.285 259.046 365.035 285.586 359.045 305.046C358.045 297.846 357.405 290.046 357.135 281.676C356.995 277.286 356.975 273.046 357.065 268.986C358.027 268.141 358.911 267.211 359.705 266.206C361.409 264.181 362.611 261.782 363.215 259.206C363.901 259.111 364.592 259.058 365.285 259.046Z" fill="#29283E"/>
<path d="M144.545 179.206C144.545 179.206 158.275 191.266 156.195 199.836C156.195 199.836 147.345 195.426 144.545 179.206Z" fill="#FF6A00"/>
<g opacity="0.3">
<path d="M144.545 179.206C144.545 179.206 158.275 191.266 156.195 199.836C156.195 199.836 147.345 195.426 144.545 179.206Z" fill="black"/>
</g>
<path d="M183.345 178.526C184.215 177.796 184.755 176.996 184.545 176.746L110.875 89.1857C110.665 88.9357 109.785 89.3257 108.875 90.0657C107.965 90.8057 107.465 91.5957 107.675 91.8457L181.355 179.406C181.605 179.656 182.475 179.256 183.345 178.526Z" fill="#FF6A00"/>
<path d="M183.345 175.416L183.845 175.956C182.844 176.878 181.996 177.955 181.335 179.146L180.655 178.856C181.351 177.565 182.261 176.402 183.345 175.416Z" fill="white"/>
<path d="M179.975 171.376L180.485 171.926C179.484 172.849 178.636 173.925 177.975 175.116L177.295 174.826C177.993 173.536 178.898 172.371 179.975 171.376Z" fill="white"/>
<path d="M176.585 167.346L177.085 167.886C176.082 168.811 175.234 169.891 174.575 171.086L173.895 170.786C174.594 169.497 175.503 168.335 176.585 167.346Z" fill="white"/>
<path d="M173.195 163.316L173.695 163.856C172.694 164.778 171.846 165.855 171.185 167.046L170.505 166.756C171.198 165.463 172.108 164.3 173.195 163.316Z" fill="white"/>
<path d="M169.795 159.276L170.305 159.826C169.297 160.745 168.446 161.822 167.785 163.016L167.105 162.716C167.807 161.429 168.716 160.267 169.795 159.276Z" fill="white"/>
<path d="M166.405 155.246L166.905 155.786C165.902 156.711 165.054 157.791 164.395 158.986L163.715 158.686C164.411 157.396 165.321 156.233 166.405 155.246Z" fill="white"/>
<path d="M163.005 151.206L163.515 151.756C162.514 152.679 161.666 153.755 161.005 154.946L160.315 154.656C161.018 153.367 161.927 152.202 163.005 151.206Z" fill="white"/>
<path d="M159.615 147.176L160.115 147.716C159.112 148.641 158.264 149.721 157.605 150.916L156.925 150.616C157.624 149.327 158.533 148.165 159.615 147.176Z" fill="white"/>
<path d="M156.215 143.146L156.725 143.686C155.724 144.608 154.876 145.685 154.215 146.876L153.535 146.586C154.228 145.296 155.134 144.133 156.215 143.146Z" fill="white"/>
<path d="M152.825 139.106L153.325 139.656C152.324 140.579 151.477 141.656 150.815 142.846L150.135 142.556C150.835 141.265 151.744 140.099 152.825 139.106Z" fill="white"/>
<path d="M149.435 135.076L149.935 135.616C148.932 136.541 148.084 137.621 147.425 138.816L146.745 138.516C147.441 137.226 148.351 136.062 149.435 135.076Z" fill="white"/>
<path d="M146.035 131.036L146.545 131.586C145.541 132.506 144.693 133.583 144.035 134.776L143.345 134.486C144.048 133.197 144.957 132.032 146.035 131.036Z" fill="white"/>
<path d="M142.645 127.006L143.145 127.546C142.144 128.473 141.297 129.553 140.635 130.746L139.955 130.446C140.657 129.159 141.566 127.997 142.645 127.006Z" fill="white"/>
<path d="M139.245 122.956L139.755 123.496C138.754 124.419 137.906 125.495 137.245 126.686L136.565 126.396C137.258 125.106 138.164 123.943 139.245 122.956Z" fill="white"/>
<path d="M135.855 118.956L136.355 119.506C135.351 120.426 134.504 121.504 133.845 122.696L133.165 122.406C133.865 121.115 134.774 119.949 135.855 118.956Z" fill="white"/>
<path d="M132.465 114.956L132.965 115.496C131.962 116.421 131.114 117.501 130.455 118.696L129.775 118.396C130.468 117.103 131.378 115.94 132.465 114.956Z" fill="white"/>
<path d="M129.065 110.866L129.575 111.416C128.57 112.337 127.719 113.414 127.055 114.606L126.375 114.316C127.078 113.027 127.987 111.862 129.065 110.866Z" fill="white"/>
<path d="M125.675 106.836L126.175 107.386C125.171 108.306 124.323 109.383 123.665 110.576L122.985 110.276C123.687 108.989 124.596 107.827 125.675 106.836Z" fill="white"/>
<path d="M122.275 102.806L122.785 103.346C121.784 104.268 120.936 105.345 120.275 106.536L119.595 106.246C120.288 104.956 121.194 103.793 122.275 102.806Z" fill="white"/>
<path d="M118.885 98.7657L119.385 99.3158C118.381 100.236 117.533 101.314 116.875 102.506L116.195 102.216C116.895 100.925 117.804 99.7593 118.885 98.7657Z" fill="white"/>
<path d="M115.495 94.7357L115.995 95.2757C114.992 96.2006 114.144 97.2811 113.485 98.4757L112.805 98.1757C113.501 96.8856 114.411 95.7225 115.495 94.7357Z" fill="white"/>
<path d="M112.095 90.6957L112.605 91.2457C111.601 92.1658 110.753 93.2432 110.095 94.4357L109.405 94.1457C110.105 92.855 111.014 91.6892 112.095 90.6957Z" fill="white"/>
<path d="M75.435 612.956C75.435 612.956 62.125 625.596 72.935 628.426C72.935 628.426 80.705 628.296 86.935 631.046C90.1355 632.51 93.525 633.52 97.005 634.046C101.754 634.832 106.605 634.75 111.325 633.806C111.638 633.728 111.919 633.555 112.129 633.309C112.338 633.064 112.465 632.759 112.491 632.437C112.518 632.115 112.443 631.794 112.277 631.517C112.11 631.241 111.861 631.023 111.565 630.896C111.175 630.736 110.765 630.546 110.335 630.356C104.817 627.884 100.333 623.566 97.655 618.146L94.775 612.306L75.435 612.956Z" fill="#F9B499"/>
<path d="M134.815 520.786L129.495 568.026C128.495 586.766 112.765 604.136 103.935 612.456C101.884 614.388 99.4687 615.892 96.8295 616.88C94.1903 617.867 91.3806 618.318 88.565 618.206C72.285 617.576 63.785 608.116 63.785 608.116C63.455 607.826 63.145 607.526 62.865 607.226C61.7918 606.014 61.0089 604.574 60.5757 603.014C60.1425 601.455 60.0704 599.817 60.365 598.226C61.0116 593.643 61.2193 589.008 60.985 584.386C60.605 576.386 59.935 567.856 59.095 559.386C55.435 522.156 48.485 484.606 48.485 484.606C47.935 482.756 47.405 480.966 46.915 479.216C36.345 441.456 39.345 425.806 39.345 425.806L108.035 409.806L123.035 406.326L127.195 426.116C140.475 462.236 134.815 520.786 134.815 520.786Z" fill="#29283E"/>
<path d="M59.0949 559.306C33.7049 577.156 2.93495 581.306 -5.71505 582.146C-6.40961 582.211 -7.10695 582.053 -7.70456 581.693C-8.30216 581.333 -8.76852 580.79 -9.03506 580.146C-11.8262 572.934 -13.489 565.334 -13.9651 557.616C-14 557.046 -13.8855 556.477 -13.6329 555.964C-13.3804 555.452 -12.9985 555.015 -12.5251 554.696C-2.89505 548.186 18.3749 516.636 18.3749 516.636C25.9908 502.802 35.6079 490.169 46.915 479.146C47.405 480.896 47.915 482.686 48.485 484.536C48.485 484.526 55.4349 522.076 59.0949 559.306Z" fill="#29283E"/>
<g opacity="0.2">
<path d="M57.465 467.396C57.465 467.396 56.635 509.976 63.785 540.586C63.785 540.586 74.495 581.476 62.865 607.226C61.7918 606.014 61.0089 604.574 60.5757 603.014C60.1425 601.455 60.0704 599.817 60.365 598.226C61.0116 593.643 61.2193 589.008 60.985 584.386C60.605 576.386 59.935 567.856 59.095 559.386C55.435 522.156 48.485 484.606 48.485 484.606C47.935 482.756 47.405 480.966 46.915 479.216C36.345 441.456 39.345 425.806 39.345 425.806L108.035 409.806C103.865 411.316 56.515 429.066 57.465 467.396Z" fill="black"/>
</g>
<g opacity="0.2">
<path d="M68.2749 598.636C68.2749 598.636 112.025 582.006 127.165 536.096C127.165 536.096 110.695 604.126 68.2749 598.636Z" fill="black"/>
</g>
<g opacity="0.2">
<path d="M70.105 563.376C70.105 563.376 107.035 552.726 116.185 489.686C116.185 489.686 113.195 564.206 70.105 563.376Z" fill="black"/>
</g>
<path d="M56.965 241.166L59.795 243.656C60.175 243.985 60.6394 244.201 61.1359 244.281C61.6324 244.36 62.1412 244.3 62.605 244.106C71.105 240.526 112.465 221.536 144.545 179.206C144.545 179.206 146.375 193.346 156.195 199.836C156.195 199.836 130.575 227.446 113.445 236.756L54.885 269.366L49.885 250.236C49.885 250.236 52.565 251.066 56.965 241.166Z" fill="#FF6A00"/>
<g opacity="0.2">
<path d="M156.195 199.836C156.195 199.836 147.065 209.666 136.075 219.576C134.982 220.556 133.875 221.536 132.755 222.516C126.235 228.186 119.335 233.516 113.445 236.756L54.885 269.366L49.885 250.236C49.885 250.236 52.555 251.066 56.955 241.166L59.785 243.656C60.165 243.985 60.6294 244.201 61.1259 244.281C61.6224 244.36 62.1312 244.3 62.595 244.106C71.095 240.526 112.455 221.536 144.535 179.206C144.545 179.206 146.345 193.346 156.195 199.836Z" fill="black"/>
</g>
<path d="M136.075 219.576C134.982 220.556 133.875 221.536 132.755 222.516L131.985 209.066L122.225 204.176L124.715 201.886L135.485 205.886L136.075 219.576Z" fill="#29283E"/>
<path d="M165.925 160.326C165.925 160.326 166.255 169.636 162.425 174.466L151.605 195.466C150.658 194.476 149.836 193.374 149.155 192.186C147.149 188.768 145.694 185.056 144.845 181.186C144.845 181.186 155.445 171.776 155.275 163.126C155.275 163.126 154.945 157.636 153.615 154.636C153.615 154.636 152.445 149.316 155.445 148.156C155.445 148.156 155.945 143.996 158.765 143.996C158.765 143.996 159.265 140.336 164.255 141.666L171.075 145.156C171.075 145.156 172.575 145.826 172.075 149.986C172.075 149.986 172.075 150.046 172.075 150.116C172.285 151.406 173.345 160.476 165.925 160.326Z" fill="#F9B499"/>
<path d="M165.925 160.326C165.925 160.326 166.255 169.636 162.425 174.466L151.605 195.466C150.659 194.476 149.836 193.374 149.155 192.186L159.605 172.956C160.105 161.146 163.925 160.316 163.925 160.316C172.595 156.966 172.225 151.126 172.095 150.146C172.285 151.406 173.345 160.476 165.925 160.326Z" fill="#F7A48B"/>
<path d="M355.545 256.066L344.265 270.626C340.757 275.154 335.594 278.103 329.912 278.825C324.23 279.547 318.494 277.983 313.965 274.476C311.833 272.823 310.048 270.765 308.711 268.421C307.375 266.078 306.515 263.493 306.178 260.816C305.842 258.14 306.037 255.423 306.752 252.821C307.467 250.22 308.688 247.785 310.345 245.656L316.945 237.136L326.805 224.416C327.842 223.075 329.134 221.951 330.606 221.11C332.078 220.268 333.701 219.725 335.383 219.511C337.065 219.298 338.773 219.418 340.408 219.865C342.044 220.312 343.575 221.077 344.915 222.116L351.965 227.576C356.214 230.882 358.978 235.738 359.649 241.08C360.32 246.422 358.844 251.811 355.545 256.066Z" fill="#F9B499"/>
<path d="M321.975 230.476C321.975 230.476 329.275 211.226 348.235 216.046C348.235 216.046 361.705 218.376 364.865 253.476C364.865 253.476 346.405 254.646 338.085 225.366L321.975 230.476Z" fill="#29283E"/>
<path d="M316.905 237.136L310.345 245.656C308.377 248.192 307.031 251.155 306.415 254.306C306.415 254.306 305.775 252.966 304.705 250.606C300.705 241.746 290.575 218.656 285.065 199.086C285.065 199.086 282.065 188.086 276.585 181.946C273.473 178.93 271.676 174.808 271.585 170.476C271.585 170.476 269.425 159.826 267.265 155.836C267.265 155.836 271.755 152.836 275.745 164.156L277.075 170.156C277.574 167.416 278.355 164.735 279.405 162.156C279.405 162.156 281.605 158.856 276.705 153.036C276.657 152.981 276.625 152.915 276.613 152.843C276.6 152.772 276.606 152.699 276.632 152.631C276.658 152.563 276.701 152.503 276.758 152.459C276.815 152.414 276.883 152.385 276.955 152.376C278.655 152.156 282.955 152.246 284.565 158.376C284.565 158.376 286.225 158.046 288.395 160.206C288.977 160.115 289.572 160.219 290.089 160.501C290.606 160.783 291.016 161.228 291.255 161.766C291.526 162.438 291.554 163.185 291.335 163.876C290.695 165.996 288.925 172.646 290.125 178.246C290.186 178.533 290.273 178.814 290.385 179.086C291.275 181.236 295.505 191.336 300.055 199.826C300.835 201.286 301.625 202.696 302.415 204.016C303.065 205.096 303.675 206.186 304.255 207.306C306.855 212.386 313.675 226.126 316.905 237.136Z" fill="#F9B499"/>
<path d="M282.695 165.816C282.591 165.815 282.491 165.784 282.405 165.726C282.298 165.648 282.226 165.531 282.203 165.4C282.181 165.269 282.21 165.135 282.285 165.026C284.165 162.366 284.025 158.386 284.025 158.346C284.025 158.213 284.078 158.086 284.171 157.992C284.265 157.898 284.392 157.846 284.525 157.846C284.658 157.846 284.785 157.898 284.879 157.992C284.972 158.086 285.025 158.213 285.025 158.346C285.025 158.526 285.175 162.716 283.105 165.646C283.055 165.704 282.992 165.75 282.92 165.78C282.849 165.809 282.772 165.822 282.695 165.816Z" fill="#F7A48B"/>
<path d="M286.525 166.476C286.459 166.477 286.393 166.466 286.331 166.442C286.269 166.418 286.213 166.382 286.165 166.336C286.073 166.241 286.021 166.113 286.021 165.981C286.021 165.848 286.073 165.721 286.165 165.626C286.835 164.917 287.335 164.065 287.63 163.135C287.924 162.205 288.005 161.221 287.865 160.256C287.852 160.191 287.851 160.125 287.864 160.061C287.876 159.996 287.901 159.935 287.938 159.88C287.974 159.825 288.021 159.778 288.075 159.741C288.129 159.704 288.19 159.679 288.255 159.666C288.386 159.642 288.521 159.671 288.631 159.745C288.742 159.82 288.818 159.935 288.845 160.066C289.021 161.194 288.932 162.348 288.585 163.437C288.238 164.525 287.642 165.517 286.845 166.336C286.759 166.42 286.645 166.47 286.525 166.476Z" fill="#F7A48B"/>
<path d="M347.065 306.206C342.195 314.016 338.705 312.436 336.545 309.456C339.545 307.766 347.785 302.086 351.645 289.116C352.585 297.956 347.065 306.206 347.065 306.206Z" fill="#F7A48B"/>
<path d="M321.785 383.726L316.995 384.726L314.135 385.346C313.339 385.558 312.518 385.659 311.695 385.646C309.404 385.562 307.212 384.693 305.485 383.186C303.155 381.366 301.485 381.876 300.485 382.566C299.584 383.174 298.51 383.472 297.425 383.416L259.425 381.516C263.425 371.876 266.135 353.116 266.135 353.116C305.775 370.116 323.305 359.566 323.305 359.566C319.625 367.956 321.785 383.726 321.785 383.726Z" fill="#F9B499"/>
<path d="M316.995 384.766L314.135 385.386C313.339 385.598 312.518 385.699 311.695 385.686C309.624 378.566 309.721 370.99 311.975 363.926C312.485 375.056 315.625 382.166 316.995 384.766Z" fill="#F7A48B"/>
<path d="M423.585 578.676C417.834 583.846 411.621 588.478 405.025 592.516C397.941 596.941 390.167 600.152 382.025 602.016C377.19 603.066 372.227 603.403 367.295 603.016C352.625 601.836 344.625 594.106 344.625 594.106C341.824 591.479 338.371 589.649 334.625 588.806C328.945 587.296 322.295 587.076 316.085 587.416C309.067 587.833 302.096 588.836 295.245 590.416C290.991 591.689 286.645 592.629 282.245 593.226C275.755 594.176 268.785 594.716 262.465 595.006C250.525 595.556 240.845 595.236 240.845 595.236C227.845 595.486 218.935 594.876 212.845 593.996C202.185 592.516 200.345 590.156 200.345 590.156C198.883 589.208 197.28 588.499 195.595 588.056C181.495 584.266 163.755 598.136 163.755 598.136C156.265 602.966 161.255 595.306 161.255 595.306C164.475 591.266 167.578 587.266 170.565 583.306C178.565 572.706 185.695 562.456 192.015 552.826C217.295 514.336 229.455 485.826 229.455 485.826C232.285 478.976 235.025 471.096 237.595 462.826C248.335 428.366 256.235 387.346 256.235 387.346C256.565 382.346 259.395 381.516 259.395 381.516L270.215 382.056L297.395 383.416C298.48 383.472 299.554 383.174 300.455 382.566C301.455 381.876 303.145 381.366 305.455 383.186C307.182 384.693 309.374 385.562 311.665 385.646C312.488 385.659 313.309 385.558 314.105 385.346L316.965 384.726L321.755 383.726L340.755 429.726L349.065 449.956C362.825 489.896 391.385 533.836 408.875 558.666C414.875 567.156 419.545 573.416 421.875 576.516L423.585 578.676Z" fill="#29283E"/>
<path d="M421.905 576.486C382.095 604.806 355.555 585.486 355.555 585.486C320.125 572.346 283.855 584.486 283.855 584.486C230.965 597.296 196.195 582.656 196.195 582.656C187.807 580.123 178.828 580.343 170.575 583.286C178.575 572.686 185.705 562.436 192.025 552.806C195.965 553.026 202.595 554.036 213.465 557.156C215.915 557.856 218.345 558.666 220.725 559.596C225.905 561.596 240.505 566.126 261.575 563.106C263.934 562.76 266.271 562.279 268.575 561.666C278.355 559.106 314.345 550.666 347.185 555.046C347.185 555.046 360.655 556.546 381.285 562.696C381.285 562.696 393.705 566.326 408.825 558.626C414.855 567.126 419.545 573.386 421.905 576.486Z" fill="#FF6A00"/>
<g opacity="0.2">
<path d="M212.815 594.066C202.185 592.516 200.345 590.156 200.345 590.156C198.883 589.208 197.28 588.499 195.595 588.056C277.595 476.056 264.225 399.056 264.225 399.056C260.225 403.056 256.565 413.526 256.565 413.526C250.875 445.786 242.145 458.336 237.565 462.896C248.305 428.436 256.205 387.416 256.205 387.416C256.535 382.416 259.365 381.586 259.365 381.586L270.185 382.126C266.615 392.266 269.345 405.216 269.345 405.216C281.555 485.956 226.115 574.286 212.815 594.066Z" fill="black"/>
</g>
<g opacity="0.2">
<path d="M282.175 593.296C275.685 594.246 268.715 594.786 262.395 595.076C265.105 577.856 283.725 457.076 282.025 395.696L287.855 403.016C287.855 403.016 289.345 536.426 282.175 593.296Z" fill="black"/>
</g>
<g opacity="0.2">
<path d="M334.555 588.846C328.875 587.336 322.225 587.116 316.015 587.456C312.015 549.516 297.165 401.856 297.165 401.856L311.635 414.166L334.555 588.846Z" fill="black"/>
</g>
<g opacity="0.2">
<path d="M381.975 602.016C377.14 603.066 372.177 603.403 367.245 603.016L321.785 426.476L328.785 423.646L381.975 602.016Z" fill="black"/>
</g>
<g opacity="0.2">
<path d="M423.585 578.676C417.834 583.846 411.621 588.478 405.025 592.516C374.705 544.516 340.685 429.796 340.685 429.796H340.755L349.065 449.956C362.825 489.896 391.385 533.836 408.875 558.666C414.875 567.156 419.545 573.416 421.875 576.516L423.585 578.676Z" fill="black"/>
</g>
<path d="M263.475 367.036C262.508 371.977 261.147 376.832 259.405 381.556C256.405 382.556 256.245 387.386 256.245 387.386L254.425 396.676C253.795 399.906 252.885 404.036 251.845 408.556C247.945 425.386 242.185 447.466 242.185 447.466L224.185 471.386C219.025 479.386 212.185 467.056 212.185 467.056C211.622 466.541 211.005 466.088 210.345 465.706C205.715 463.006 199.735 464.076 197.015 464.786C196.946 464.806 196.872 464.801 196.806 464.773C196.74 464.745 196.686 464.694 196.653 464.631C196.62 464.567 196.61 464.494 196.625 464.424C196.64 464.353 196.679 464.29 196.735 464.246C202.225 459.486 226.225 436.976 253.935 385.056L263.475 367.036Z" fill="#FF6A00"/>
<g opacity="0.2">
<path d="M263.475 367.036C262.508 371.977 261.147 376.832 259.405 381.556C256.405 382.556 256.245 387.386 256.245 387.386L254.425 396.676C253.795 399.906 252.885 404.036 251.845 408.556C247.945 425.386 242.185 447.466 242.185 447.466L224.185 471.386C219.025 479.386 212.185 467.056 212.185 467.056C211.622 466.541 211.005 466.088 210.345 465.706C205.715 463.006 199.735 464.076 197.015 464.786C196.946 464.806 196.872 464.801 196.806 464.773C196.74 464.745 196.686 464.694 196.653 464.631C196.62 464.567 196.61 464.494 196.625 464.424C196.64 464.353 196.679 464.29 196.735 464.246C202.225 459.486 226.225 436.976 253.935 385.056L263.475 367.036Z" fill="white"/>
</g>
<path d="M389.155 300.716L386.995 343.956C386.995 372.406 376.995 390.696 376.995 390.696C365.815 411.006 360.445 415.906 358.865 417.016C358.035 417.596 357.215 418.206 356.415 418.846C353.469 421.135 350.786 423.744 348.415 426.626C313.155 465.056 284.885 382.626 284.885 382.626L290.345 382.956L297.425 383.436C298.514 383.534 299.602 383.231 300.485 382.586C303.115 380.796 305.485 383.206 305.485 383.206C310.145 386.866 314.135 385.366 314.135 385.366L321.785 383.706C332.265 393.016 337.425 382.876 337.425 382.876C341.478 374.118 344.654 364.98 346.905 355.596C349.565 345.946 347.735 335.296 347.735 335.296C346.235 322.986 348.735 309.716 348.735 309.716C355.095 293.616 353.255 285.356 353.255 285.356C352.315 280.666 348.705 281.236 348.705 281.236L345.705 277.406L346.375 269.256C346.367 269.764 346.482 270.267 346.71 270.721C346.939 271.175 347.273 271.568 347.685 271.866C351.685 274.636 357.035 268.966 357.035 268.966C356.875 277.486 359.035 305.026 359.035 305.026C363.525 291.026 364.695 270.586 364.695 270.586C366.185 258.776 363.535 243.586 363.535 243.586C359.535 218.586 348.225 216.026 348.225 216.026C344.819 215.01 341.208 214.897 337.745 215.696C339.701 214.611 341.753 213.711 343.875 213.006C368.875 204.836 379.495 237.326 379.495 237.326L386.985 272.416C390.345 290.576 389.155 300.716 389.155 300.716Z" fill="#FF6A00"/>
<g opacity="0.2">
<path d="M389.155 300.716L386.995 343.956C386.995 372.406 376.995 390.696 376.995 390.696C365.815 411.006 360.445 415.906 358.865 417.016C358.035 417.596 357.215 418.206 356.415 418.846C353.469 421.135 350.786 423.744 348.415 426.626C313.155 465.056 284.885 382.626 284.885 382.626L290.345 382.956L297.425 383.436C298.514 383.534 299.602 383.231 300.485 382.586C303.115 380.796 305.485 383.206 305.485 383.206C310.145 386.866 314.135 385.366 314.135 385.366L321.785 383.706C332.265 393.016 337.425 382.876 337.425 382.876C341.478 374.118 344.654 364.98 346.905 355.596C349.565 345.946 347.735 335.296 347.735 335.296C346.235 322.986 348.735 309.716 348.735 309.716C355.095 293.616 353.255 285.356 353.255 285.356C352.315 280.666 348.705 281.236 348.705 281.236L345.705 277.406L346.375 269.256C346.367 269.764 346.482 270.267 346.71 270.721C346.939 271.175 347.273 271.568 347.685 271.866C351.685 274.636 357.035 268.966 357.035 268.966C356.875 277.486 359.035 305.026 359.035 305.026C363.525 291.026 364.695 270.586 364.695 270.586C366.185 258.776 363.535 243.586 363.535 243.586C359.535 218.586 348.225 216.026 348.225 216.026C344.819 215.01 341.208 214.897 337.745 215.696C339.701 214.611 341.753 213.711 343.875 213.006C368.875 204.836 379.495 237.326 379.495 237.326L386.985 272.416C390.345 290.576 389.155 300.716 389.155 300.716Z" fill="white"/>
</g>
<g opacity="0.2">
<path d="M389.155 300.716L386.995 343.956C386.995 372.406 376.995 390.696 376.995 390.696C365.815 411.006 360.445 415.906 358.865 417.016C358.035 417.596 357.215 418.206 356.415 418.846C353.469 421.135 350.786 423.744 348.415 426.626C313.155 465.056 284.885 382.626 284.885 382.626L290.345 382.956C290.345 382.956 330.405 431.236 345.205 418.096C345.205 418.096 358.685 395.976 372.325 381.336C372.325 381.336 385.795 370.686 384.635 339.586C384.635 339.586 382.475 274.376 378.635 262.586L376.805 314.156L376.475 266.076C376.475 266.076 376.975 247.786 370.315 231.976C370.315 231.976 364.185 213.976 343.845 212.976C368.845 204.806 379.465 237.296 379.465 237.296L386.955 272.386C390.345 290.576 389.155 300.716 389.155 300.716Z" fill="white"/>
</g>
<g opacity="0.2">
<path d="M374.345 371.086C374.835 356.586 375.675 341.956 376.845 327.496C376.355 341.996 375.515 356.626 374.345 371.086Z" fill="white"/>
</g>
<g opacity="0.2">
<path d="M359.345 378.566C357.245 387.266 354.785 395.996 352.025 404.516C354.125 395.816 356.595 387.086 359.345 378.566Z" fill="white"/>
</g>
<g opacity="0.2">
<path d="M340.915 409.006L336.255 403.686C336.255 403.686 338.585 391.206 346.405 385.556C343.666 393.131 341.824 401.002 340.915 409.006Z" fill="white"/>
</g>
<g opacity="0.2">
<path d="M349.065 370.086C352.108 364.094 354.582 357.83 356.455 351.376C357.823 346.771 358.948 342.098 359.825 337.376C359.825 337.186 360.135 335.786 360.175 335.606C360.295 334.826 360.655 332.506 360.785 331.696C361.085 329.836 361.275 327.846 361.545 325.986C361.435 327.356 361.295 328.906 361.185 330.296C361.075 331.686 360.695 334.166 360.505 335.666C360.315 337.166 359.985 338.786 359.715 340.286C359.445 341.786 358.885 344.286 358.455 345.926C357.194 351.07 355.546 356.111 353.525 361.006C352.255 364.128 350.764 367.155 349.065 370.066V370.086Z" fill="white"/>
</g>
<g opacity="0.2">
<path d="M301.825 393.036C301.825 393.036 319.625 410.666 338.585 412.496C338.585 412.496 321.955 418.956 301.825 393.036Z" fill="white"/>
</g>
<g opacity="0.2">
<path d="M316.125 396.366L319.455 402.686L333.095 407.176L332.595 403.016L316.125 396.366Z" fill="white"/>
</g>
<g opacity="0.2">
<path d="M311.635 386.546C311.635 386.546 314.795 399.856 334.095 397.696L337.585 388.696C337.585 388.696 320.455 393.536 311.635 386.546Z" fill="white"/>
</g>
<path d="M351.665 301.386C350.973 304.099 350.07 306.753 348.965 309.326C344.585 319.506 338.715 330.326 335.775 335.566C334.775 337.396 333.625 339.176 332.435 340.896C325.185 351.396 323.285 359.606 323.285 359.606C322.495 359.976 321.685 360.306 320.865 360.606C304.095 366.686 280.495 359.006 269.865 354.826C266.355 353.446 264.255 352.446 264.255 352.446L266.605 340.556C266.816 339.446 267.083 338.348 267.405 337.266C268.545 333.576 267.005 329.616 266.055 327.686C265.124 325.784 264.451 323.766 264.055 321.686C261.565 309.036 271.445 305.166 271.445 305.166C271.305 303.106 271.215 301.166 271.185 299.336C270.785 279.716 275.935 273.726 275.935 273.726C281.228 273.838 286.474 274.749 291.495 276.426C292.07 276.605 292.676 276.662 293.274 276.591C293.872 276.52 294.448 276.324 294.965 276.016C299.665 273.296 310.865 281.216 310.865 281.216L319.515 287.366C328.515 288.036 329.995 293.366 329.995 293.366L333.995 303.686C336.325 311.496 339.425 311.606 339.425 311.606C344.215 313.016 348.205 304.766 350.025 300.156C351.155 297.339 351.735 294.331 351.735 291.296C351.735 284.496 348.805 281.226 348.805 281.226C355.895 280.896 353.485 294.186 351.665 301.386Z" fill="#FF6A00"/>
<path d="M285.025 199.086C285.025 199.086 287.275 207.436 288.475 210.326C291.294 210.083 293.953 208.915 296.039 207.003C298.124 205.091 299.519 202.543 300.005 199.756L296.905 193.586C296.905 193.586 289.845 204.236 285.025 199.086Z" fill="#FF6A00"/>
<path d="M275.875 273.766C275.875 273.766 270.685 270.496 264.005 266.566C256.905 262.386 248.115 257.466 242.105 254.976C234.842 245.252 228.282 235.023 222.475 224.366L210.005 201.076C210.005 201.076 207.175 194.926 210.835 190.436C213.515 187.787 215.711 184.691 217.325 181.286C217.325 181.286 223.325 169.976 221.815 166.476C221.815 166.476 217.325 160.656 214.325 163.986L212.495 167.316C212.495 167.316 211.495 159.996 204.495 166.816C204.495 166.816 200.165 165.646 199.495 170.136C199.495 170.136 197.665 169.136 195.495 171.136C195.495 171.136 193.665 172.806 196.325 174.966C196.325 174.966 199.485 176.966 195.325 184.776C193.835 187.624 193.216 190.848 193.545 194.046C193.752 196.31 194.354 198.52 195.325 200.576C195.325 200.576 197.825 205.736 201.475 220.046C203.718 228.007 206.687 235.747 210.345 243.166L218.825 258.636C218.825 258.636 221.985 266.636 227.145 267.636C227.145 267.636 252.735 291.706 271.145 299.396C271.145 297.116 271.145 295.026 271.215 293.106C271.845 278.446 275.875 273.766 275.875 273.766ZM212.875 168.406L215.345 166.956C215.391 166.922 215.447 166.903 215.505 166.903C215.562 166.903 215.618 166.922 215.665 166.956L216.745 168.036C216.778 168.069 216.802 168.111 216.812 168.157C216.823 168.203 216.82 168.251 216.805 168.296L215.535 172.506C215.507 172.598 215.452 172.68 215.377 172.742C215.302 172.803 215.211 172.841 215.115 172.851C215.019 172.86 214.922 172.841 214.836 172.796C214.751 172.75 214.681 172.681 214.635 172.596L212.745 169.046C212.683 168.941 212.663 168.817 212.689 168.698C212.715 168.579 212.785 168.475 212.885 168.406H212.875Z" fill="#F9B499"/>
<path d="M202.345 177.456C202.28 177.452 202.216 177.435 202.157 177.406C202.098 177.377 202.046 177.337 202.003 177.288C201.96 177.238 201.928 177.181 201.908 177.119C201.887 177.056 201.88 176.991 201.885 176.926C202.195 172.296 199.335 170.586 199.305 170.576C199.191 170.507 199.108 170.396 199.074 170.267C199.041 170.138 199.059 170.001 199.125 169.886C199.157 169.828 199.2 169.778 199.252 169.738C199.304 169.698 199.364 169.669 199.427 169.652C199.49 169.635 199.556 169.631 199.621 169.64C199.686 169.65 199.749 169.672 199.805 169.706C199.945 169.786 203.225 171.756 202.885 176.996C202.88 177.061 202.862 177.126 202.832 177.184C202.802 177.243 202.761 177.295 202.711 177.338C202.661 177.381 202.602 177.413 202.54 177.433C202.477 177.454 202.411 177.461 202.345 177.456Z" fill="#F7A48B"/>
<path d="M207.675 174.296C207.549 174.296 207.427 174.249 207.335 174.164C207.242 174.078 207.185 173.961 207.175 173.836C206.997 171.333 205.933 168.976 204.175 167.186C204.128 167.14 204.091 167.086 204.066 167.025C204.041 166.965 204.028 166.901 204.028 166.836C204.028 166.77 204.041 166.706 204.066 166.646C204.091 166.586 204.128 166.531 204.175 166.486C204.263 166.386 204.387 166.326 204.52 166.316C204.652 166.307 204.783 166.35 204.885 166.436C206.849 168.393 208.033 170.999 208.215 173.766C208.223 173.897 208.18 174.026 208.094 174.125C208.007 174.224 207.886 174.285 207.755 174.296H207.675Z" fill="#F7A48B"/>
<g opacity="0.2">
<path d="M251.845 408.556C247.945 425.386 242.185 447.466 242.185 447.466L224.185 471.386C219.025 479.386 212.185 467.056 212.185 467.056C211.622 466.541 211.005 466.088 210.345 465.706C211.405 464.226 213.545 462.286 217.845 461.076C217.845 461.076 218.675 457.576 230.155 447.936C230.155 447.936 234.475 445.606 236.805 438.936L251.845 408.556Z" fill="white"/>
</g>
<path d="M316.905 237.136L310.345 245.656C308.377 248.192 307.031 251.155 306.415 254.306C306.415 254.306 305.775 252.966 304.705 250.606C306.134 247.369 307.89 244.286 309.945 241.406C311.57 239.097 312.283 236.269 311.945 233.466C310.435 221.846 300.615 200.856 300.115 199.796C300.895 201.256 301.685 202.666 302.475 203.986C303.125 205.066 303.735 206.156 304.315 207.276C306.855 212.386 313.675 226.126 316.905 237.136Z" fill="#F7A48B"/>
<path d="M271.125 299.376C252.725 291.686 227.125 267.616 227.125 267.616C221.965 266.616 218.805 258.616 218.805 258.616L210.345 243.166C206.704 235.745 203.752 228.006 201.525 220.046C197.875 205.736 195.375 200.576 195.375 200.576C194.405 198.52 193.802 196.31 193.595 194.046V193.776C195.033 197.359 196.79 200.807 198.845 204.076C198.845 204.076 206.845 237.176 221.305 256.806C221.305 256.806 249.755 283.076 271.185 293.086C271.105 295.006 271.075 297.096 271.125 299.376Z" fill="#F7A48B"/>
<path d="M26.0151 236.756L29.5251 246.826C29.5251 246.826 45.6551 247.326 51.8151 249.656C51.8151 249.656 55.3051 247.156 56.9651 241.166L55.9651 238.726L26.0151 236.756Z" fill="#F9B499"/>
<path d="M26.0151 236.756C26.0151 236.756 37.6751 256.136 56.9651 241.166L55.9651 238.726L26.0151 236.756Z" fill="#F7A48B"/>
<path d="M187.575 377.576C183.985 381.136 178.945 384.296 174.175 386.826C169.834 389.096 165.359 391.099 160.775 392.826C160.637 392.874 160.523 392.974 160.457 393.104C160.392 393.235 160.38 393.386 160.425 393.526L161.005 395.426C161.127 395.823 161.108 396.25 160.951 396.634C160.795 397.019 160.51 397.337 160.145 397.536L135.515 410.956C135.105 411.182 134.623 411.24 134.171 411.117C133.719 410.993 133.333 410.699 133.095 410.296L130.515 405.956C130.471 405.883 130.411 405.822 130.34 405.775C130.269 405.728 130.189 405.698 130.105 405.685C130.021 405.673 129.936 405.679 129.855 405.703C129.773 405.728 129.698 405.769 129.635 405.826C126.842 408.357 123.83 410.636 120.635 412.636C113.95 416.861 106.616 419.955 98.925 421.796C98.8163 421.819 98.7038 421.818 98.5953 421.794C98.4869 421.77 98.3849 421.722 98.2966 421.655C98.2082 421.587 98.1355 421.502 98.0834 421.403C98.0314 421.305 98.0012 421.197 97.995 421.086L97.805 416.436V416.316C97.774 416.017 97.6781 415.728 97.5239 415.471C97.3696 415.213 97.1609 414.992 96.9122 414.823C96.6635 414.654 96.3809 414.542 96.0843 414.494C95.7877 414.446 95.4841 414.464 95.195 414.546L93.445 415.046L85.875 417.196L77.385 419.616C77.0114 419.72 76.6841 419.947 76.457 420.262C76.2298 420.576 76.1163 420.958 76.135 421.346L76.355 427.006C76.3687 427.282 76.3251 427.557 76.227 427.815C76.1289 428.074 75.9784 428.309 75.785 428.506C75.5763 428.727 75.3198 428.898 75.035 429.006C51.035 438.096 31.665 433.296 31.665 433.296L32.325 425.476C30.3613 425.366 28.4089 425.105 26.485 424.696C20.92 423.506 15.626 421.288 10.875 418.156C10.875 415.782 10.9417 413.449 11.075 411.156V410.386C11.155 408.766 11.255 407.166 11.375 405.596L11.435 404.846C11.7883 400.346 12.2717 396.066 12.885 392.006C18.715 352.946 34.965 334.276 34.965 334.276C34.615 333.716 34.285 333.146 33.965 332.596C33.325 331.526 32.715 330.476 32.125 329.446C29.525 324.886 27.385 320.806 25.725 317.446C21.1896 308.29 18.9453 298.17 19.185 287.956C19.2511 283.245 20.0024 278.57 21.415 274.076C23.305 268.276 25.695 265.666 25.695 265.666C29.855 260.666 29.855 257.356 29.855 257.356L29.525 246.876C37.055 246.693 44.5695 247.647 51.815 249.706C56.635 251.366 56.305 255.186 56.305 255.186C81.425 260.016 150.955 210.276 150.955 210.276C152.785 228.746 164.095 233.896 164.095 233.896C148.785 255.356 103.545 285.796 103.545 285.796L106.705 299.406L107.865 304.406C121.01 309.6 133.282 316.777 144.255 325.686C158.008 336.841 170.188 349.805 180.465 364.226L180.875 364.806C181.665 365.926 182.405 366.976 183.075 367.966C183.205 368.156 183.325 368.346 183.455 368.526C185.585 371.676 187.055 374.076 187.855 375.416C188.052 375.756 188.132 376.153 188.081 376.543C188.031 376.934 187.853 377.297 187.575 377.576Z" fill="#FF6A00"/>
<path d="M38.9648 256.256C35.6448 256.256 32.3848 256.166 29.7148 255.906L29.8148 254.906C39.2248 255.826 56.0949 254.656 56.2649 254.646L56.3348 255.646C56.2148 255.646 47.4248 256.256 38.9648 256.256Z" fill="white"/>
<path d="M51.8648 255.546C51.889 255.077 51.82 254.608 51.6618 254.166C51.5036 253.724 51.2594 253.318 50.9432 252.971C50.627 252.624 50.2451 252.344 49.8197 252.145C49.3943 251.947 48.9338 251.835 48.4648 251.816L29.4648 251.116V250.116L48.4648 250.816C49.662 250.873 50.7891 251.397 51.6043 252.276C52.4194 253.154 52.8576 254.318 52.8249 255.516L51.8648 255.546Z" fill="white"/>
<g opacity="0.2">
<path d="M103.545 285.746L104.995 292.026L55.345 304.376C55.345 304.376 139.345 260.736 158.655 229.746C160.352 231.278 162.186 232.65 164.135 233.846C164.135 233.846 147.345 256.306 103.545 285.746Z" fill="black"/>
</g>
<g opacity="0.2">
<path d="M48.8249 326.046C48.8249 326.046 39.8249 328.336 32.1649 329.486C29.5649 324.926 27.4249 320.846 25.7649 317.486C21.2094 308.322 18.9511 298.187 19.1849 287.956C19.2511 283.245 20.0023 278.57 21.4149 274.076C21.3449 277.616 21.0249 313.466 48.8249 326.046Z" fill="white"/>
</g>
<g opacity="0.2">
<path d="M144.345 325.836C134.425 320.406 120.205 313.366 114.345 310.506C113.278 309.975 112.102 309.699 110.91 309.699C109.718 309.699 108.542 309.975 107.475 310.506C103.713 312.6 100.166 315.058 96.8851 317.846C87.803 325.872 76.6048 331.117 64.625 332.956C49.155 334.956 43.8251 337.786 43.8251 337.786C18.0451 351.786 11.885 411.306 11.885 411.306C11.235 400.736 16.315 382.836 16.535 382.056L12.935 392.056C18.765 352.996 35.0151 334.326 35.0151 334.326C34.6651 333.766 34.3351 333.196 34.0151 332.646L34.535 332.566C57.9735 327.502 80.5026 318.893 101.345 307.036L106.665 299.356L107.825 304.356C120.97 309.55 133.242 316.727 144.215 325.636L144.345 325.836Z" fill="black"/>
</g>
<path d="M180.875 364.776L180.505 364.866C173.065 365.756 163.895 372.706 159.095 376.766C157.521 378.1 156.09 379.595 154.825 381.226C152.96 383.503 150.644 385.369 148.023 386.708C145.402 388.047 142.533 388.829 139.595 389.006C133.806 389.467 128.233 391.413 123.415 394.656C121.505 395.936 120.255 396.946 120.245 396.956C112.535 402.066 100.445 403.596 95.6049 404.016C94.6949 404.086 93.7049 404.126 92.4649 404.116C85.2349 404.116 73.2949 410.706 73.1849 410.776C67.1849 413.516 60.0449 414.336 53.6749 414.336C50.7649 414.336 48.0149 414.166 45.5949 413.926C40.6043 413.438 35.6593 412.562 30.8049 411.306C23.9841 411.164 17.3261 409.196 11.5249 405.606L11.5849 404.856C17.3626 408.508 24.0308 410.507 30.8649 410.636H30.9449C35.7764 411.886 40.6979 412.759 45.6649 413.246C53.3149 413.996 64.2549 414.076 72.8949 410.156C73.5449 409.796 85.1449 403.426 92.4949 403.426H92.7349C93.8549 403.426 94.7349 403.426 95.6249 403.316C100.405 402.906 112.345 401.406 119.935 396.376C120.075 396.266 121.315 395.276 123.145 394.046C128.061 390.745 133.743 388.762 139.645 388.286C142.478 388.118 145.246 387.367 147.776 386.08C150.305 384.793 152.542 382.997 154.345 380.806C155.649 379.149 157.112 377.625 158.715 376.256C163.575 372.146 172.855 365.116 180.475 364.206L180.875 364.776Z" fill="#29283E"/>
<path d="M183.455 368.496C175.835 371.136 165.395 377.656 161.265 381.146C158.94 383.318 156.755 385.636 154.725 388.086C150.725 393.196 145.625 393.256 141.925 393.306C141.225 393.306 140.555 393.306 139.975 393.366C135.175 393.746 129.545 396.076 123.245 400.306C121.335 401.586 120.085 402.606 120.075 402.616C110.315 409.076 93.405 409.816 93.235 409.816C86.155 409.166 73.135 416.356 73.005 416.426C67.005 419.156 59.865 419.976 53.495 419.976C50.585 419.976 47.835 419.806 45.415 419.566C40.3939 419.09 35.4184 418.217 30.535 416.956C23.6516 416.813 16.9348 414.812 11.095 411.166V410.396C16.916 414.122 23.6548 416.164 30.565 416.296H30.645C35.4823 417.576 40.4149 418.466 45.395 418.956C53.055 419.716 63.985 419.786 72.625 415.876C73.325 415.486 85.975 408.536 93.205 409.186C93.895 409.186 110.205 408.346 119.665 402.096C119.805 401.986 121.045 400.996 122.875 399.766C129.265 395.476 135.005 393.106 139.925 392.716C140.525 392.666 141.205 392.656 141.925 392.646C145.485 392.646 150.365 392.536 154.215 387.646C156.271 385.171 158.486 382.833 160.845 380.646C164.975 377.156 175.375 370.646 183.085 367.946C183.205 368.126 183.345 368.316 183.455 368.496Z" fill="#29283E"/>
<path d="M171.135 215.386C172.265 215.216 173.135 214.816 173.135 214.496L156.435 101.286C156.385 100.966 155.435 100.846 154.305 101.006C153.175 101.166 152.305 101.566 152.355 101.896L169.055 215.106C169.055 215.426 170.015 215.546 171.135 215.386Z" fill="#FF6A00"/>
<path d="M172.795 212.746L172.935 213.476C171.597 213.731 170.31 214.204 169.125 214.876L168.695 214.266C169.966 213.531 171.352 213.017 172.795 212.746Z" fill="white"/>
<path d="M172.025 207.526L172.165 208.256C170.83 208.521 169.544 208.993 168.355 209.656L167.925 209.046C169.198 208.317 170.584 207.803 172.025 207.526Z" fill="white"/>
<path d="M171.255 202.316L171.395 203.046C170.057 203.301 168.77 203.774 167.585 204.446L167.165 203.836C168.432 203.101 169.815 202.587 171.255 202.316Z" fill="white"/>
<path d="M170.485 197.096L170.625 197.826C169.29 198.091 168.004 198.563 166.815 199.226L166.395 198.616C167.665 197.885 169.047 197.372 170.485 197.096Z" fill="white"/>
<path d="M169.715 191.886L169.865 192.616C168.525 192.868 167.234 193.338 166.045 194.006L165.625 193.406C166.892 192.671 168.275 192.157 169.715 191.886Z" fill="white"/>
<path d="M168.945 186.666L169.095 187.396C167.755 187.654 166.465 188.126 165.275 188.796L164.855 188.186C166.125 187.457 167.507 186.943 168.945 186.666Z" fill="white"/>
<path d="M168.175 181.456L168.325 182.176C166.986 182.439 165.697 182.911 164.505 183.576L164.085 182.976C165.354 182.244 166.736 181.73 168.175 181.456Z" fill="white"/>
<path d="M167.405 176.236L167.555 176.966C166.213 177.219 164.922 177.692 163.735 178.366L163.315 177.756C164.586 177.029 165.968 176.515 167.405 176.236Z" fill="white"/>
<path d="M166.645 171.026L166.785 171.746C165.446 172.009 164.157 172.481 162.965 173.146L162.545 172.536C163.818 171.808 165.204 171.298 166.645 171.026Z" fill="white"/>
<path d="M165.875 165.806L166.015 166.536C164.676 166.788 163.388 167.261 162.205 167.936L161.775 167.326C163.046 166.591 164.432 166.077 165.875 165.806Z" fill="white"/>
<path d="M165.105 160.586L165.245 161.316C163.909 161.578 162.623 162.05 161.435 162.716L161.005 162.106C162.281 161.381 163.665 160.868 165.105 160.586Z" fill="white"/>
<path d="M164.345 155.376L164.485 156.106C163.147 156.359 161.859 156.832 160.675 157.506L160.245 156.896C161.516 156.161 162.902 155.647 164.345 155.376Z" fill="white"/>
<path d="M163.565 150.156L163.705 150.886C162.37 151.151 161.084 151.623 159.895 152.286L159.465 151.676C160.741 150.951 162.125 150.438 163.565 150.156Z" fill="white"/>
<path d="M162.795 144.956L162.935 145.686C161.597 145.941 160.31 146.414 159.125 147.086L158.695 146.476C159.966 145.741 161.352 145.227 162.795 144.956Z" fill="white"/>
<path d="M162.025 139.726L162.165 140.456C160.83 140.721 159.544 141.193 158.355 141.856L157.925 141.246C159.198 140.516 160.584 140.003 162.025 139.726Z" fill="white"/>
<path d="M161.255 134.516L161.395 135.246C160.058 135.501 158.772 135.97 157.585 136.636L157.155 136.036C158.426 135.301 159.812 134.787 161.255 134.516Z" fill="white"/>
<path d="M160.485 129.296L160.625 130.026C159.288 130.286 158.002 130.759 156.815 131.426L156.385 130.816C157.659 130.086 159.044 129.573 160.485 129.296Z" fill="white"/>
<path d="M159.715 124.086L159.855 124.816C158.518 125.071 157.232 125.54 156.045 126.206L155.625 125.606C156.892 124.871 158.275 124.357 159.715 124.086Z" fill="white"/>
<path d="M158.945 118.866L159.095 119.596C157.753 119.849 156.462 120.322 155.275 120.996L154.855 120.386C156.124 119.655 157.507 119.142 158.945 118.866Z" fill="white"/>
<path d="M158.175 113.656L158.325 114.376C156.986 114.639 155.697 115.111 154.505 115.776L154.085 115.166C155.354 114.437 156.737 113.927 158.175 113.656Z" fill="white"/>
<path d="M157.405 108.436L157.555 109.166C156.213 109.419 154.922 109.892 153.735 110.566L153.345 109.956C154.604 109.225 155.976 108.712 157.405 108.436Z" fill="white"/>
<path d="M156.635 103.226L156.785 103.946C155.446 104.209 154.157 104.681 152.965 105.346L152.545 104.736C153.816 104.01 155.198 103.5 156.635 103.226Z" fill="white"/>
<path d="M116.315 232.556L135.985 239.666L134.995 262.206L140.555 257.506L142.305 236.016L122.875 228.706L116.315 232.556Z" fill="#29283E"/>
<path d="M150.955 210.226C150.955 210.226 165.255 223.866 164.095 233.846C164.095 233.846 152.785 228.696 150.955 210.226Z" fill="#FF6A00"/>
<g opacity="0.3">
<path d="M150.955 210.226C150.955 210.226 165.255 223.866 164.095 233.846C164.095 233.846 152.785 228.696 150.955 210.226Z" fill="black"/>
</g>
<path d="M160.765 202.746L151.485 213.566C151.485 213.566 152.425 223.056 159.095 229.866L171.575 214.716C171.575 214.716 183.385 206.566 180.575 194.096C180.575 194.096 179.075 174.626 170.755 179.456C170.755 179.456 166.755 180.456 164.605 186.776C164.605 186.776 163.275 187.276 163.275 184.776C163.275 184.776 163.025 180.346 161.365 178.156C161.3 178.07 161.21 178.007 161.108 177.973C161.006 177.94 160.896 177.938 160.793 177.969C160.69 177.999 160.599 178.06 160.531 178.143C160.464 178.227 160.423 178.329 160.415 178.436C160.246 180.064 159.979 181.68 159.615 183.276C159.615 183.276 156.945 195.586 160.765 202.746Z" fill="#F9B499"/>
<path d="M29.8551 257.306C29.7751 260.716 25.6951 265.616 25.6951 265.616C22.4551 269.366 20.6251 276.516 20.6251 276.516L17.5651 273.916L9.4751 267.036C15.2951 255.036 19.8251 236.436 19.8251 236.436L25.1351 235.226L26.0151 236.756L28.1051 242.756L29.5251 246.836L29.8551 257.306Z" fill="#FF6A00"/>
<g opacity="0.2">
<path d="M29.8549 257.306C29.7749 260.716 25.6949 265.616 25.6949 265.616C22.4549 269.366 20.6249 276.516 20.6249 276.516L17.5649 273.916L28.1049 242.746L29.5249 246.826L29.8549 257.306Z" fill="black"/>
</g>
<path d="M8.03516 196.805L42.6773 181.432L59.2145 218.698C61.2531 223.292 61.3833 228.507 59.5764 233.197C57.7696 237.887 54.1737 241.667 49.5799 243.705C44.9861 245.744 39.7705 245.874 35.0807 244.067C30.3909 242.261 26.6109 238.665 24.5723 234.071L8.03516 196.805Z" fill="#F9B499"/>
<path d="M22.435 211.346L24.275 214.406C24.3846 214.57 24.4431 214.763 24.4431 214.961C24.4431 215.158 24.3846 215.351 24.275 215.516L22.425 218.356C22.3338 218.491 22.277 218.646 22.2595 218.808C22.2421 218.97 22.2646 219.134 22.325 219.286C23.8114 223.201 24.9198 227.249 25.635 231.376L14.115 224.666C16.4235 222.005 17.654 218.577 17.565 215.056C19.3315 214.019 20.9666 212.774 22.435 211.346Z" fill="#29283E"/>
<path d="M47.905 198.006L52.515 203.606L50.455 199.016C50.455 199.016 50.395 198.166 49.195 198.166L47.905 198.006Z" fill="#29283E"/>
<path d="M24.7856 235.763C26.6679 233.88 25.772 229.933 22.7845 226.945C19.797 223.958 15.8492 223.062 13.9668 224.944C12.0845 226.826 12.9804 230.774 15.968 233.762C18.9555 236.749 22.9032 237.645 24.7856 235.763Z" fill="#F9B499"/>
<path d="M17.545 215.056C17.545 215.056 18.5449 222.056 11.5449 227.056C11.5449 227.056 7.88494 229.556 5.89494 224.226C5.89494 224.226 2.73494 221.736 4.89494 216.916C3.90916 215.376 3.29091 213.629 3.08803 211.812C2.88514 209.995 3.10307 208.155 3.72494 206.436C3.72494 206.436 -0.0950575 201.106 4.89494 193.126C5.93147 190.868 7.47652 188.88 9.40915 187.319C11.3418 185.758 13.6095 184.665 16.0349 184.126C16.0349 184.126 18.2049 176.966 30.5049 176.806C30.5049 176.806 37.5049 174.306 47.5049 183.286L56.5049 193.946C56.7062 194.178 56.8684 194.441 56.985 194.726C57.775 196.556 60.2349 203.576 54.5549 208.126L50.4349 199.026C50.3241 198.781 50.1477 198.572 49.9252 198.422C49.7028 198.272 49.443 198.187 49.1749 198.176C47.1428 198.185 45.1556 197.578 43.4749 196.436C43.4749 196.436 40.315 195.596 35.325 198.756C35.325 198.756 27.3249 202.256 26.0049 204.916C26.0249 204.956 25.195 210.726 17.545 215.056Z" fill="#FF6A00"/>
<g opacity="0.2">
<path d="M3.73493 206.406C5.32735 202.387 8.12113 198.958 11.7349 196.586C11.7349 196.586 15.8449 194.156 18.4649 193.636C18.7308 193.584 19.0055 193.602 19.2623 193.688C19.519 193.774 19.7492 193.925 19.9304 194.127C20.1115 194.328 20.2376 194.573 20.2962 194.837C20.3548 195.102 20.3441 195.377 20.2649 195.636C19.7049 197.286 18.0949 200.086 13.3949 202.376C13.015 202.641 12.651 202.928 12.3049 203.236C9.83641 205.373 8.29169 208.384 7.99492 211.636C7.81492 213.436 7.28492 216.036 5.63492 216.696C5.44892 216.758 5.24715 216.752 5.06452 216.681C4.88189 216.61 4.72991 216.477 4.63492 216.306C3.77492 214.856 1.85493 210.576 3.73493 206.406Z" fill="black"/>
</g>
<g opacity="0.2">
<path d="M26.8649 180.116L24.8649 184.616C18.9081 186.86 13.8219 190.944 10.3449 196.276C10.0045 196.693 9.60339 197.057 9.15489 197.356C8.83975 197.566 8.46868 197.677 8.08983 197.674C7.71098 197.67 7.34183 197.553 7.03029 197.338C6.71875 197.122 6.4792 196.818 6.34271 196.464C6.20623 196.111 6.17912 195.725 6.26489 195.356C6.83489 192.716 8.86489 187.546 16.0149 184.086C16.0449 184.116 20.5349 178.786 26.8649 180.116Z" fill="black"/>
</g>
<g opacity="0.2">
<path d="M7.19511 222.956C7.02827 222.64 6.95735 222.283 6.99111 221.927C7.02487 221.572 7.16182 221.234 7.3851 220.956C8.3851 219.676 10.2751 217.156 10.3851 215.596C10.5451 213.426 8.8851 211.266 14.0451 205.596C16.8775 202.705 19.3306 199.466 21.3451 195.956C22.1036 194.5 22.5883 192.917 22.7751 191.286C23.1576 188.681 24.2983 186.246 26.0551 184.286L30.5451 176.806C30.5451 176.806 34.4851 175.866 37.4251 177.336C37.4251 177.336 30.0551 186.456 28.5551 191.606C27.2763 195.442 24.8546 198.795 21.6151 201.216C21.3091 201.438 21.0562 201.726 20.8746 202.058C20.6931 202.39 20.5873 202.758 20.5651 203.136C20.4946 205.234 19.8854 207.279 18.7961 209.074C17.7068 210.869 16.174 212.354 14.3451 213.386C14.8805 215.149 14.8984 217.028 14.3967 218.801C13.895 220.573 12.8948 222.165 11.5151 223.386C11.5151 223.386 9.3551 225.886 7.5151 223.556C7.39752 223.362 7.2907 223.161 7.19511 222.956Z" fill="black"/>
</g>
<g opacity="0.2">
<path d="M34.6748 182.446L31.6748 187.936C31.6748 187.936 36.8348 185.276 41.1548 187.606C41.1548 187.606 42.4848 189.436 48.1548 189.936L51.0348 190.276C51.1591 190.298 51.2874 190.282 51.4019 190.228C51.5164 190.175 51.6116 190.087 51.6741 189.978C51.7367 189.868 51.7636 189.741 51.7512 189.616C51.7388 189.49 51.6877 189.371 51.6048 189.276C49.9348 187.036 45.0848 182.066 34.6748 182.446Z" fill="black"/>
</g>
<g opacity="0.2">
<path d="M28.3449 201.806C27.3988 202.452 26.5588 203.241 25.855 204.146C25.395 204.726 24.7649 205.146 24.0849 204.576C22.7549 203.406 23.255 200.246 26.575 198.416C26.575 198.416 33.0649 194.416 36.0549 194.926C33.7894 197.539 31.1983 199.851 28.3449 201.806Z" fill="black"/>
</g>
<g opacity="0.2">
<path d="M35.015 190.266C35.015 190.266 29.525 189.606 29.525 192.096C29.525 192.096 27.025 195.926 30.525 194.756C34.5041 193.356 38.7094 192.712 42.925 192.856C45.0703 192.933 47.1672 193.515 49.045 194.556C51.435 195.876 54.245 198.086 54.155 201.076L53.685 206.176L54.585 208.116C56.3468 206.873 57.564 205 57.985 202.886C58.4756 200.554 58.0712 198.123 56.8522 196.076C55.6332 194.029 53.6886 192.515 51.405 191.836C46.092 190.271 40.5284 189.738 35.015 190.266Z" fill="black"/>
</g>
<path d="M35.0151 334.316L32.0151 329.506C32.0151 329.506 79.4351 322.916 106.435 298.426L107.825 304.376C107.825 304.376 80.4251 333.156 35.0151 334.316Z" fill="#29283E"/>
<g opacity="0.2">
<path d="M130.515 405.956C130.471 405.883 130.411 405.822 130.34 405.775C130.269 405.728 130.189 405.698 130.105 405.685C130.021 405.673 129.936 405.679 129.855 405.703C129.773 405.727 129.698 405.769 129.635 405.826C126.842 408.357 123.83 410.636 120.635 412.636C116.145 392.016 101.505 336.466 101.345 335.956C106.345 345.276 130.345 405.486 130.515 405.956Z" fill="black"/>
</g>
<g opacity="0.2">
<path d="M174.175 386.826C169.834 389.095 165.359 391.099 160.775 392.826C160.637 392.874 160.523 392.974 160.457 393.104C160.392 393.235 160.38 393.386 160.425 393.526C151.605 375.526 127.165 339.276 127.165 339.276C138.515 347.956 172.445 384.956 174.175 386.826Z" fill="black"/>
</g>
<g opacity="0.2">
<path d="M85.895 417.196L77.405 419.616C77.0313 419.72 76.7041 419.947 76.477 420.262C76.2498 420.576 76.1363 420.958 76.155 421.346L76.375 427.006C76.3887 427.281 76.3451 427.557 76.247 427.815C76.1489 428.073 75.9984 428.309 75.805 428.506C74.225 416.386 69.285 375.636 72.105 359.436C72.105 359.436 75.555 400.286 85.895 417.196Z" fill="black"/>
</g>
<g opacity="0.2">
<path d="M97.8251 416.316C97.7942 416.017 97.6982 415.728 97.544 415.47C97.3898 415.213 97.181 414.992 96.9323 414.823C96.6836 414.654 96.401 414.542 96.1044 414.494C95.8078 414.446 95.5042 414.464 95.2151 414.546L93.4651 415.046C93.0951 408.046 91.8051 382.046 92.2351 373.746C92.2351 373.746 96.5851 398.136 97.8251 416.316Z" fill="black"/>
</g>
<g opacity="0.2">
<path d="M38.3449 388.546C36.0149 398.196 32.3449 425.476 32.3449 425.476C30.3811 425.365 28.4287 425.105 26.5049 424.696C30.5949 393.766 38.3449 388.546 38.3449 388.546Z" fill="black"/>
</g>
<path d="M338.455 225.706L337.715 225.026C337.955 224.776 343.515 218.806 349.825 216.156L350.215 217.076C344.105 219.646 338.505 225.646 338.455 225.706Z" fill="#FF6A00"/>
<path d="M333.485 231.576C333.485 231.576 336.005 255.576 350.815 261.576L355.815 253.576C355.815 253.576 339.285 241.206 333.485 231.576Z" fill="#F7A48B"/>
<path d="M359.164 266.948C363.234 262.079 364.602 256.519 362.221 254.528C359.839 252.538 354.61 254.871 350.54 259.74C346.47 264.609 345.102 270.17 347.484 272.16C349.865 274.151 355.095 271.817 359.164 266.948Z" fill="#F9B499"/>
<path d="M321.975 230.476C322.459 229.352 323.007 228.257 323.615 227.196C324.407 225.801 325.295 224.465 326.275 223.196L338.085 225.356C338.085 225.356 344.985 251.716 364.865 253.466L365.035 259.286C365.035 259.286 342.035 260.956 333.425 230.346L321.975 230.476Z" fill="#FF6A00"/>
<path d="M334.42 233.264C336.332 231.151 336.78 228.441 335.421 227.21C334.062 225.98 331.409 226.695 329.497 228.808C327.584 230.921 327.136 233.631 328.496 234.862C329.855 236.092 332.507 235.377 334.42 233.264Z" fill="#FF6A00"/>
<path d="M330.205 235.956C329.453 235.975 328.721 235.711 328.155 235.216C326.565 233.776 326.985 230.806 329.155 228.456C331.325 226.106 334.205 225.386 335.795 226.816C337.385 228.246 336.955 231.226 334.795 233.586C334.23 234.271 333.532 234.834 332.743 235.241C331.954 235.649 331.091 235.892 330.205 235.956ZM333.715 227.096C332.973 227.158 332.25 227.367 331.59 227.71C330.929 228.053 330.342 228.524 329.865 229.096C328.165 230.966 327.695 233.416 328.865 234.446C330.035 235.476 332.385 234.756 334.085 232.876C335.785 230.996 336.255 228.556 335.085 227.536C334.697 227.228 334.209 227.074 333.715 227.106V227.096Z" fill="#29283E"/>
<path d="M271.345 305.206L271.505 309.366L278.165 310.196C278.165 310.196 277.165 280.706 282.805 274.326C280.492 273.936 278.15 273.748 275.805 273.766C275.805 273.766 269.555 281.256 271.345 305.206Z" fill="#29283E"/>
<g opacity="0.2">
<path d="M271.545 309.366L296.165 313.856C296.165 313.856 297.495 318.686 308.815 322.006C306.613 321.997 304.435 321.551 302.408 320.692C300.38 319.834 298.543 318.581 297.005 317.006C297.005 317.006 300.325 323.326 309.005 328.156C309.005 328.156 299.525 325.496 294.865 316.676C294.865 316.676 300.195 334.306 315.665 340.466C315.665 340.466 297.665 335.806 291.045 314.846L271.545 309.366Z" fill="black"/>
</g>
<g opacity="0.2">
<path d="M351.665 301.386C350.973 304.099 350.07 306.753 348.965 309.326C344.585 319.506 338.715 330.326 335.775 335.566C334.775 337.396 333.625 339.166 332.435 340.896C325.185 351.396 323.285 359.606 323.285 359.606C322.495 359.976 321.685 360.306 320.865 360.606C319.865 352.606 323.155 345.966 325.155 342.736C326.059 341.296 326.692 339.703 327.025 338.036C328.235 332.036 330.535 329.706 331.705 328.896C332.788 328.168 333.764 327.293 334.605 326.296C339.805 320.006 339.355 311.636 339.355 311.636C344.145 313.046 348.135 304.796 349.955 300.186C351.085 297.369 351.665 294.361 351.665 291.326C351.665 284.526 348.735 281.256 348.735 281.256C355.895 280.896 353.485 294.186 351.665 301.386Z" fill="black"/>
</g>
<g opacity="0.2">
<path d="M272.045 343.306L269.845 354.826C266.335 353.446 264.235 352.446 264.235 352.446L266.545 340.726C266.765 339.555 267.045 338.397 267.385 337.256C268.525 333.576 266.985 329.616 266.035 327.686C265.104 325.784 264.431 323.766 264.035 321.686C261.545 309.036 271.425 305.166 271.425 305.166C271.425 305.166 263.825 313.356 265.885 320.546C266.112 321.31 266.5 322.016 267.025 322.616C268.735 324.726 273.705 331.726 272.045 343.306Z" fill="white"/>
</g>
<path d="M206.195 233.666C206.875 230.346 209.925 221.356 222.915 225.096C223.036 225.128 223.163 225.125 223.282 225.087C223.401 225.05 223.507 224.979 223.587 224.884C223.668 224.789 223.72 224.672 223.737 224.549C223.754 224.425 223.736 224.299 223.685 224.186L218.535 213.106C218.311 212.616 217.957 212.197 217.51 211.895C217.064 211.593 216.543 211.421 216.005 211.396C211.855 211.186 201.935 211.706 200.905 221.266C200.858 221.705 200.892 222.149 201.005 222.576C201.325 223.886 202.355 227.156 205.485 233.756C205.52 233.826 205.577 233.883 205.646 233.919C205.715 233.956 205.794 233.971 205.872 233.961C205.949 233.951 206.022 233.917 206.08 233.864C206.138 233.812 206.178 233.742 206.195 233.666Z" fill="#FF6A00"/>
</svg>
