<svg width="33" height="33" viewBox="0 0 33 33" fill="none" xmlns="http://www.w3.org/2000/svg">
<path d="M24.1978 21.282H22.6687L22.1267 20.7596C23.3364 19.3552 24.2205 17.7008 24.7157 15.915C25.211 14.1292 25.3051 12.256 24.9914 10.4296C24.0817 5.05175 19.5911 0.757228 14.1714 0.0995085C12.266 -0.141399 10.3308 0.0565083 8.51369 0.678087C6.69661 1.29967 5.0459 2.32844 3.68785 3.68569C2.32981 5.04294 1.30043 6.69269 0.678485 8.5087C0.0565415 10.3247 -0.141482 12.2588 0.0995668 14.1631C0.757672 19.5796 5.05471 24.0676 10.4357 24.9768C12.2632 25.2903 14.1374 25.1962 15.9243 24.7012C17.7112 24.2063 19.3665 23.3227 20.7718 22.1138L21.2944 22.6554V24.1837L29.5208 32.4052C30.3144 33.1983 31.6112 33.1983 32.4048 32.4052C33.1984 31.612 33.1984 30.3159 32.4048 29.5228L24.1978 21.282ZM12.5842 21.282C7.76456 21.282 3.874 17.3937 3.874 12.5768C3.874 7.76001 7.76456 3.87172 12.5842 3.87172C17.4039 3.87172 21.2944 7.76001 21.2944 12.5768C21.2944 17.3937 17.4039 21.282 12.5842 21.282Z" fill="white"/>
</svg>
